<?xml version="1.0" encoding="utf-8"?>
<!-- Generator: Adobe Illustrator 24.0.0, SVG Export Plug-In . SVG Version: 6.00 Build 0)  -->
<svg version="1.1" id="Layer_1" xmlns:v="https://vecta.io/nano"
	 xmlns="http://www.w3.org/2000/svg" xmlns:xlink="http://www.w3.org/1999/xlink" x="0px" y="0px" viewBox="0 0 78 78"
	 style={{enable-background: new 0 0 78 78}} xml:space="preserve">
<style type="text/css">
	.st0{clip-path:url(#SVGID_2_);}
	.st1{fill:#FFBA08;}
	.st2{opacity:0.3;fill:#EF4444;enable-background:new    ;}
	.st3{fill:url(#SVGID_3_);}
	.st4{fill:url(#SVGID_4_);}
</style>
<g>
	<defs>
		<rect id="SVGID_1_" y="0" width="78" height="78"/>
	</defs>
	<clipPath id="SVGID_2_">
		<use xlink:href="#SVGID_1_"  style="overflow:visible;"/>
	</clipPath>
	<g class="st0">
		<path class="st1" d="M47.2,65c0,7.2-5.8,13-13,13s-13-5.8-13-13s5.8-13,13-13S47.2,57.8,47.2,65z"/>
		<path class="st2" d="M47.2,65c0,7.2-5.8,13-13,13s-13-5.8-13-13s5.8-13,13-13S47.2,57.8,47.2,65z"/>
		
			<linearGradient id="SVGID_3_" gradientUnits="userSpaceOnUse" x1="1.249" y1="17.2477" x2="63.249" y2="52.2477" gradientTransform="matrix(1 0 0 -1 0 77.8898)">
			<stop  offset="0" style="stop-color:#FFBA08"/>
			<stop  offset="1" style="stop-color:#FFDB7E"/>
		</linearGradient>
		<path class="st3" d="M57,38.7c-11-1.6-19.5-11-19.5-22.5c0-3.1,0.7-6.3,1.9-9.1c-1.7-0.4-3.4-0.6-5.2-0.6
			c-12.5,0-22.8,10.2-22.8,22.8v9.1c0,6.4-2.8,12.5-7.8,16.7c-1.3,1.1-2,2.7-2,4.3c0,3.1,2.6,5.7,5.7,5.7H61c3.1,0,5.7-2.6,5.7-5.7
			c0-1.7-0.7-3.2-2-4.3C59.9,50.9,57.1,45,57,38.7L57,38.7z"/>
		
			<linearGradient id="SVGID_4_" gradientUnits="userSpaceOnUse" x1="49.2763" y1="37.3491" x2="66.7763" y2="76.3491" gradientTransform="matrix(1 0 0 -1 0 77.8898)">
			<stop  offset="0" style="stop-color:#149697"/>
			<stop  offset="1" style="stop-color:#496393"/>
		</linearGradient>
		<path class="st4" d="M76.4,16.2c0,9-7.3,16.3-16.3,16.3s-16.3-7.3-16.3-16.3S51.2,0,60.2,0S76.4,7.3,76.4,16.2z"/>
	</g>
</g>
</svg>
