<svg xmlns="http://www.w3.org/2000/svg" viewBox="0 0 133.31 35.4"><defs><style>.cls-1,.cls-2{fill:#3f4366;}.cls-2{font-size:9.5px;font-family:Poppins-SemiBold, Poppins;font-weight:600;}</style></defs><title>appstore-dark</title><g id="Layer_2" data-name="Layer 2"><g id="Layer_1-2" data-name="Layer 1"><path class="cls-1" d="M21.63,16.5A7.27,7.27,0,0,1,25,10.6a7.69,7.69,0,0,0-5.8-3.1c-2.4-.3-4.8,1.4-6.1,1.4s-3.2-1.4-5.3-1.4a7.41,7.41,0,0,0-6.5,3.9c-2.8,4.8-.7,11.8,2,15.6,1.4,1.9,2.9,4,5,3.9s2.8-1.3,5.2-1.3,3.1,1.3,5.2,1.2,3.5-1.9,4.8-3.8a14,14,0,0,0,2.2-4.4A6.43,6.43,0,0,1,21.63,16.5Z"/><path class="cls-1" d="M17.63,5a6.73,6.73,0,0,0,1.6-5,7.65,7.65,0,0,0-4.7,2.4,6.58,6.58,0,0,0-1.7,4.8A6.23,6.23,0,0,0,17.63,5Z"/><path class="cls-1" d="M48.11,30.7h-2.8L43.81,26h-5.5l-1.5,4.7H34l5.3-16.1h3.3ZM43.21,24l-1.4-4.2c-.1-.4-.4-1.4-.8-3h0c-.2.7-.4,1.7-.8,3L38.81,24Z"/><path class="cls-1" d="M61.81,24.8a6.55,6.55,0,0,1-1.6,4.7,5,5,0,0,1-3.7,1.5,3.72,3.72,0,0,1-3.4-1.7h0v6.1h-2.7V22.9c0-1.2,0-2.5-.1-3.8h2.3l.1,1.8h0a4.41,4.41,0,0,1,4-2.1,4.31,4.31,0,0,1,3.5,1.6A6.13,6.13,0,0,1,61.81,24.8Zm-2.7.1a4.88,4.88,0,0,0-.8-2.8A2.59,2.59,0,0,0,56,21a3,3,0,0,0-1.8.6,2.7,2.7,0,0,0-1,1.7,2.49,2.49,0,0,0-.1.8V26a3,3,0,0,0,.8,2.1A2.58,2.58,0,0,0,56,29a2.71,2.71,0,0,0,2.3-1.1A5.57,5.57,0,0,0,59.11,24.9Z"/><path class="cls-1" d="M75.51,24.8a6.55,6.55,0,0,1-1.6,4.7,5,5,0,0,1-3.7,1.5,3.72,3.72,0,0,1-3.4-1.7h0v6.1h-2.7V22.9c0-1.2,0-2.5-.1-3.8h2.3l.1,1.8h0a4.41,4.41,0,0,1,4-2.1,4.31,4.31,0,0,1,3.5,1.6A6.13,6.13,0,0,1,75.51,24.8Zm-2.7.1a4.88,4.88,0,0,0-.8-2.8,2.59,2.59,0,0,0-2.3-1.1,3,3,0,0,0-1.8.6,2.7,2.7,0,0,0-1,1.7,2.49,2.49,0,0,0-.1.8V26a3,3,0,0,0,.8,2.1,2.58,2.58,0,0,0,2.1.9A2.71,2.71,0,0,0,72,27.9,5.57,5.57,0,0,0,72.81,24.9Z"/><path class="cls-1" d="M90.91,26.2a4.33,4.33,0,0,1-1.5,3.4,6.91,6.91,0,0,1-4.5,1.4,7.83,7.83,0,0,1-4.3-1l.6-2.2a7.21,7.21,0,0,0,3.8,1,3.17,3.17,0,0,0,2.3-.7,2,2,0,0,0,.8-1.8,2.19,2.19,0,0,0-.7-1.7,6.08,6.08,0,0,0-2.3-1.2c-2.9-1.1-4.3-2.6-4.3-4.6a4.27,4.27,0,0,1,1.5-3.3,6.48,6.48,0,0,1,4.1-1.3,8.55,8.55,0,0,1,3.8.8l-.7,2.1a6.57,6.57,0,0,0-3.2-.7,3.07,3.07,0,0,0-2.2.7,2.13,2.13,0,0,0-.7,1.5,2.09,2.09,0,0,0,.8,1.6,6.51,6.51,0,0,0,2.4,1.2,7.56,7.56,0,0,1,3.1,2A3.63,3.63,0,0,1,90.91,26.2Z"/><path class="cls-1" d="M99.61,21h-2.9v5.7c0,1.4.5,2.2,1.5,2.2a4.12,4.12,0,0,0,1.2-.1l.1,2a5.84,5.84,0,0,1-2.1.3,3.49,3.49,0,0,1-2.5-.9,4.42,4.42,0,0,1-.9-3.1V21.2h-1.7V19.3H94V17.2l2.6-.8v2.9h2.9V21Z"/><path class="cls-1" d="M112.81,24.8a6,6,0,0,1-1.6,4.4,5.73,5.73,0,0,1-4.4,1.8,5.57,5.57,0,0,1-4.2-1.7A6.33,6.33,0,0,1,101,25a6,6,0,0,1,1.6-4.4,5.8,5.8,0,0,1,4.3-1.7,5.42,5.42,0,0,1,4.2,1.7A5.23,5.23,0,0,1,112.81,24.8Zm-2.7.1a5.07,5.07,0,0,0-.7-2.8,2.81,2.81,0,0,0-2.4-1.4,2.59,2.59,0,0,0-2.4,1.4,5.07,5.07,0,0,0-.7,2.8,5.07,5.07,0,0,0,.7,2.8,2.76,2.76,0,0,0,4.8,0A6.1,6.1,0,0,0,110.11,24.9Z"/><path class="cls-1" d="M121.41,21.4c-.3,0-.5-.1-.8-.1a2.57,2.57,0,0,0-2.2,1,4.18,4.18,0,0,0-.7,2.3v6.1H115v-8c0-1.3,0-2.6-.1-3.7h2.3l.1,2.2h.1a3.52,3.52,0,0,1,1.3-1.8,3.29,3.29,0,0,1,1.9-.6h.7v2.6Z"/><path class="cls-1" d="M133.31,24.4a4.12,4.12,0,0,1-.1,1.2h-8a3.09,3.09,0,0,0,1.2,2.6,4.24,4.24,0,0,0,2.6.8,7.94,7.94,0,0,0,3.2-.6l.4,1.8a9.86,9.86,0,0,1-4,.7,5.82,5.82,0,0,1-4.4-1.6,5.73,5.73,0,0,1-1.6-4.3,6.52,6.52,0,0,1,1.5-4.4,5.24,5.24,0,0,1,4.2-1.9,4.41,4.41,0,0,1,3.9,1.9A6.8,6.8,0,0,1,133.31,24.4Zm-2.5-.7a4.23,4.23,0,0,0-.5-2,2.55,2.55,0,0,0-4.2,0,4.45,4.45,0,0,0-.8,2Z"/><text class="cls-2" transform="translate(35.3 8.77)">Coming soon on the</text></g></g></svg>