<svg xmlns="http://www.w3.org/2000/svg" xmlns:xlink="http://www.w3.org/1999/xlink" viewBox="0 0 136.47 33.25"><defs><style>.cls-1{font-size:10px;font-family:Poppins-SemiBold, Poppins;font-weight:600;}.cls-1,.cls-2{fill:#3f4366;}.cls-3{fill:url(#linear-gradient);}.cls-4{fill:url(#linear-gradient-2);}.cls-5{fill:url(#linear-gradient-3);}.cls-6{fill:url(#linear-gradient-4);}</style><linearGradient id="linear-gradient" x1="13.62" y1="496.26" x2="-5.49" y2="476.68" gradientTransform="translate(0 -466)" gradientUnits="userSpaceOnUse"><stop offset="0" stop-color="#4998d3"/><stop offset="0.01" stop-color="#4a99d3"/><stop offset="0.26" stop-color="#42baeb"/><stop offset="0.51" stop-color="#41c7f2"/><stop offset="0.76" stop-color="#56c9e9"/><stop offset="1" stop-color="#5bcae8"/></linearGradient><linearGradient id="linear-gradient-2" x1="27.85" y1="483.2" x2="-0.39" y2="483.2" gradientTransform="translate(0 -466)" gradientUnits="userSpaceOnUse"><stop offset="0" stop-color="#fee000"/><stop offset="0.41" stop-color="#febd11"/><stop offset="0.78" stop-color="#faa51a"/><stop offset="1" stop-color="#f99c1c"/></linearGradient><linearGradient id="linear-gradient-3" x1="7.64" y1="490.07" x2="-18.28" y2="463.52" gradientTransform="translate(0 -466)" gradientUnits="userSpaceOnUse"><stop offset="0" stop-color="#ef4049"/><stop offset="1" stop-color="#c31e63"/></linearGradient><linearGradient id="linear-gradient-4" x1="-12.3" y1="496.84" x2="-0.73" y2="484.99" gradientTransform="translate(0 -466)" gradientUnits="userSpaceOnUse"><stop offset="0" stop-color="#32a072"/><stop offset="0.07" stop-color="#2da771"/><stop offset="0.48" stop-color="#4bba71"/><stop offset="0.8" stop-color="#5ebd6b"/><stop offset="1" stop-color="#66be69"/></linearGradient></defs><title>googleplay-darl</title><g id="Layer_2" data-name="Layer 2"><g id="Layer_1-2" data-name="Layer 1"><text class="cls-1" transform="translate(44.48 8.54)">Coming soon on </text><path class="cls-2" d="M69.07,19.25a4.85,4.85,0,0,0-5,4.8,4.79,4.79,0,0,0,5,4.8,4.91,4.91,0,0,0,5-4.8A4.85,4.85,0,0,0,69.07,19.25Zm0,7.8a2.9,2.9,0,1,1,2.8-2.9A2.88,2.88,0,0,1,69.07,27.05Zm-10.9-7.8a4.85,4.85,0,0,0-5,4.8,4.79,4.79,0,0,0,5,4.8,4.91,4.91,0,0,0,5-4.8A4.79,4.79,0,0,0,58.17,19.25Zm0,7.8a2.9,2.9,0,1,1,2.8-2.9A2.88,2.88,0,0,1,58.17,27.05Zm-12.9-6.3v2.1h5a3.92,3.92,0,0,1-1.1,2.6,5.26,5.26,0,0,1-3.9,1.5,5.5,5.5,0,0,1,0-11,5.11,5.11,0,0,1,3.8,1.5l1.5-1.5a7.37,7.37,0,0,0-5.3-2.1,7.69,7.69,0,0,0-7.8,7.5,7.75,7.75,0,0,0,7.8,7.5,7.16,7.16,0,0,0,5.4-2.1,6.74,6.74,0,0,0,1.8-4.8,5.28,5.28,0,0,0-.1-1.3h-7.1Zm52.9,1.6a4.63,4.63,0,0,0-9,1.7,4.76,4.76,0,0,0,4.9,4.8,5,5,0,0,0,4.1-2.1l-1.7-1.1a2.81,2.81,0,0,1-2.4,1.3,2.51,2.51,0,0,1-2.4-1.5l6.6-2.7ZM91.37,24a2.63,2.63,0,0,1,2.6-2.8,1.78,1.78,0,0,1,1.8,1ZM86,28.65h2.2V14.35H86Zm-3.6-8.3h0a3.75,3.75,0,0,0-2.7-1.1,4.85,4.85,0,0,0,0,9.7,3.34,3.34,0,0,0,2.6-1.1h.1v.7c0,1.9-1,2.8-2.6,2.8a2.7,2.7,0,0,1-2.5-1.7l-1.9.7a4.69,4.69,0,0,0,4.4,2.9c2.6,0,4.7-1.5,4.7-5v-8.7h-2.1Zm-2.5,6.7a2.82,2.82,0,0,1-2.8-2.9,2.91,2.91,0,0,1,2.8-3,2.77,2.77,0,0,1,2.7,3A2.8,2.8,0,0,1,79.87,27.05Zm28.5-12.7h-5.2v14.2h2.2v-5.4h3a4.59,4.59,0,0,0,4.8-4.4A4.59,4.59,0,0,0,108.37,14.35Zm0,6.9h-3.1v-4.9h3.1a2.55,2.55,0,0,1,2.6,2.4A2.5,2.5,0,0,1,108.37,21.25Zm13.5-2.1a4.15,4.15,0,0,0-3.9,2.2l1.9.8a2,2,0,0,1,2-1c1.1,0,2.3.7,2.3,1.8v.2a5,5,0,0,0-2.3-.6c-2.1,0-4.2,1.1-4.2,3.2,0,1.9,1.7,3.1,3.6,3.1a3,3,0,0,0,2.8-1.4h.1v1.1h2.1v-5.4C126.27,20.65,124.37,19.15,121.87,19.15Zm-.3,7.9c-.7,0-1.7-.3-1.7-1.2,0-1.1,1.2-1.5,2.3-1.5a3.68,3.68,0,0,1,2,.5A2.68,2.68,0,0,1,121.57,27.05Zm12.4-7.5-2.5,6.2h-.1l-2.6-6.2h-2.3l3.9,8.6-2.2,4.8h2.3l6-13.4Zm-19.6,9.1h2.2V14.35h-2.2Z"/><path class="cls-3" d="M.5,3.05A2.35,2.35,0,0,0,0,4.65v25.2a2.35,2.35,0,0,0,.5,1.6l.1.1,14.5-14.1v-.3L.5,3.05Z"/><path class="cls-4" d="M19.9,22.05l-4.8-4.7v-.3l4.8-4.7.1.1,5.7,3.2c1.6.9,1.6,2.4,0,3.3L20,22.05Z"/><path class="cls-5" d="M20,22.05l-4.9-4.8L.5,31.45a2.08,2.08,0,0,0,2.5,0Z"/><path class="cls-6" d="M20,12.45,3,3a2.06,2.06,0,0,0-2.5.1L15,17.25Z"/></g></g></svg>